<?xml version="1.0" encoding="UTF-8"?>
<svg xmlns="http://www.w3.org/2000/svg" width="1200" height="900" viewBox="0 0 1200 900" font-family="Helvetica, Arial, sans-serif">
  <title>Son playing with a VR headset in his room, watched by his mother from the doorway</title>
  <defs>
    <linearGradient id="wallGrad" x1="0" y1="0" x2="0" y2="1">
      <stop offset="0" stop-color="#eaf2fa"/>
      <stop offset="1" stop-color="#cfe0ee"/>
    </linearGradient>
    <linearGradient id="floorGrad" x1="0" y1="0" x2="0" y2="1">
      <stop offset="0" stop-color="#d8a86b"/>
      <stop offset="1" stop-color="#bd8a4d"/>
    </linearGradient>
    <linearGradient id="skyGrad" x1="0" y1="0" x2="0" y2="1">
      <stop offset="0" stop-color="#8fd0f2"/>
      <stop offset="1" stop-color="#dff0dc"/>
    </linearGradient>
    <linearGradient id="hallGrad" x1="0" y1="0" x2="0" y2="1">
      <stop offset="0" stop-color="#2c3543"/>
      <stop offset="1" stop-color="#47535f"/>
    </linearGradient>
    <linearGradient id="vrGrad" x1="0" y1="0" x2="1" y2="1">
      <stop offset="0" stop-color="#0d1e38"/>
      <stop offset="1" stop-color="#1c3b5c"/>
    </linearGradient>
    <radialGradient id="glow" cx="0.5" cy="0.5" r="0.5">
      <stop offset="0" stop-color="#7ef0e0" stop-opacity="0.85"/>
      <stop offset="1" stop-color="#7ef0e0" stop-opacity="0"/>
    </radialGradient>
    <marker id="arrMom" viewBox="0 0 12 12" refX="10" refY="6" markerWidth="9" markerHeight="9" orient="auto-start-reverse">
      <path d="M 1 1 L 11 6 L 1 11 Z" fill="#e0603f"/>
    </marker>
    <marker id="arrVR" viewBox="0 0 12 12" refX="10" refY="6" markerWidth="9" markerHeight="9" orient="auto-start-reverse">
      <path d="M 1 1 L 11 6 L 1 11 Z" fill="#22a394"/>
    </marker>
  </defs>

  <!-- room shell -->
  <rect x="0" y="0" width="1200" height="900" fill="#f4f7fa"/>
  <rect x="0" y="0" width="1200" height="684" fill="url(#wallGrad)"/>
  <rect x="0" y="560" width="960" height="124" fill="#bed3e4"/>
  <rect x="0" y="554" width="960" height="8" fill="#9fb8cc"/>
  <rect x="0" y="684" width="1200" height="216" fill="url(#floorGrad)"/>
  <g stroke="#a9773f" stroke-width="2" opacity="0.55">
    <line x1="0" y1="722" x2="1200" y2="722"/>
    <line x1="0" y1="768" x2="1200" y2="768"/>
    <line x1="0" y1="820" x2="1200" y2="820"/>
    <line x1="140" y1="684" x2="110" y2="900"/>
    <line x1="470" y1="684" x2="460" y2="900"/>
    <line x1="800" y1="684" x2="830" y2="900"/>
  </g>
  <rect x="0" y="678" width="960" height="10" fill="#8c9fb0"/>

  <!-- window over the bed -->
  <g>
    <rect x="656" y="128" width="188" height="176" rx="4" fill="#8c5c30"/>
    <rect x="666" y="138" width="168" height="156" fill="url(#skyGrad)"/>
    <circle cx="806" cy="168" r="16" fill="#fff3b0"/>
    <path d="M 672 262 Q 706 226 742 262 Q 776 232 828 262 L 828 292 L 672 292 Z" fill="#a7cf9a"/>
    <g stroke="#8c5c30" stroke-width="8">
      <line x1="750" y1="138" x2="750" y2="294"/>
      <line x1="666" y1="216" x2="834" y2="216"/>
    </g>
    <rect x="644" y="304" width="212" height="12" rx="3" fill="#8c5c30"/>
    <path d="M 636 120 L 676 120 L 668 322 L 632 322 Z" fill="#e5adbd"/>
    <path d="M 824 120 L 864 120 L 868 322 L 832 322 Z" fill="#e5adbd"/>
  </g>

  <!-- wall clock -->
  <g>
    <circle cx="902" cy="222" r="28" fill="#fdfdfb" stroke="#5a6b7a" stroke-width="5"/>
    <line x1="902" y1="222" x2="902" y2="204" stroke="#3b4756" stroke-width="4" stroke-linecap="round"/>
    <line x1="902" y1="222" x2="916" y2="230" stroke="#3b4756" stroke-width="4" stroke-linecap="round"/>
  </g>

  <!-- wall shelves with books -->
  <g>
    <rect x="52" y="266" width="256" height="12" rx="3" fill="#a9743f"/>
    <rect x="52" y="352" width="256" height="12" rx="3" fill="#a9743f"/>
    <rect x="70" y="278" width="10" height="74" fill="#8c5c30" opacity="0.5"/>
    <rect x="278" y="278" width="10" height="74" fill="#8c5c30" opacity="0.5"/>
    <g>
      <rect x="68" y="216" width="18" height="50" fill="#e0603f"/>
      <rect x="90" y="226" width="16" height="40" fill="#4fa3d1"/>
      <rect x="110" y="210" width="20" height="56" fill="#f2b34c"/>
      <rect x="134" y="228" width="14" height="38" fill="#6cb87a"/>
      <rect x="152" y="218" width="18" height="48" fill="#8c6bb1"/>
    </g>
    <g>
      <rect x="222" y="240" width="66" height="26" rx="4" fill="#3d5a80"/>
      <rect x="230" y="230" width="50" height="12" rx="3" fill="#7fb2d9"/>
    </g>
    <g>
      <rect x="76" y="322" width="34" height="30" rx="4" fill="#c96f8a"/>
      <path d="M 93 322 C 76 306 82 288 93 296 C 104 288 110 306 93 322 Z" fill="#6cb87a"/>
      <rect x="150" y="316" width="46" height="36" rx="3" fill="#fdfdfb" stroke="#8c5c30" stroke-width="4"/>
      <circle cx="167" cy="330" r="5" fill="#f2c49b"/>
      <path d="M 156 348 Q 173 332 190 348 Z" fill="#7fb2d9"/>
      <rect x="240" y="318" width="18" height="34" fill="#4fa3d1"/>
      <rect x="262" y="326" width="18" height="26" fill="#f2b34c"/>
    </g>
  </g>

  <!-- desk with lamp, chair, toy box -->
  <g>
    <rect x="36" y="478" width="272" height="18" rx="4" fill="#b98047"/>
    <rect x="36" y="496" width="272" height="8" fill="#8c5c30"/>
    <rect x="48" y="504" width="16" height="180" fill="#a9743f"/>
    <rect x="280" y="504" width="16" height="180" fill="#a9743f"/>
    <rect x="64" y="504" width="216" height="70" fill="#c68d51"/>
    <line x1="172" y1="504" x2="172" y2="574" stroke="#8c5c30" stroke-width="4"/>
    <circle cx="150" cy="540" r="6" fill="#6b4523"/>
    <circle cx="196" cy="540" r="6" fill="#6b4523"/>
    <g>
      <rect x="66" y="466" width="44" height="12" rx="4" fill="#3d5a80"/>
      <path d="M 88 466 L 92 400" stroke="#3d5a80" stroke-width="7"/>
      <path d="M 66 400 L 122 400 L 108 366 L 80 366 Z" fill="#e0603f"/>
      <circle cx="94" cy="404" r="7" fill="#fff3b0"/>
    </g>
    <g>
      <rect x="196" y="462" width="76" height="16" fill="#6cb87a"/>
      <rect x="202" y="448" width="66" height="14" fill="#8c6bb1"/>
      <rect x="208" y="436" width="56" height="12" fill="#f2b34c"/>
    </g>
    <g>
      <rect x="150" y="450" width="26" height="28" rx="3" fill="#fdfdfb" stroke="#9fb8cc" stroke-width="3"/>
      <path d="M 176 458 Q 188 464 176 470" fill="none" stroke="#9fb8cc" stroke-width="3"/>
    </g>
    <g>
      <rect x="316" y="552" width="86" height="14" rx="4" fill="#4fa3d1"/>
      <rect x="378" y="458" width="16" height="96" rx="5" fill="#3d5a80"/>
      <rect x="322" y="566" width="10" height="118" fill="#3d5a80"/>
      <rect x="384" y="566" width="10" height="118" fill="#3d5a80"/>
    </g>
    <g>
      <rect x="408" y="596" width="98" height="88" rx="6" fill="#b98047"/>
      <rect x="402" y="586" width="110" height="18" rx="5" fill="#8c5c30"/>
      <rect x="446" y="630" width="22" height="10" rx="3" fill="#6b4523"/>
      <rect x="414" y="616" width="26" height="26" fill="#e0603f"/>
      <rect x="474" y="616" width="26" height="26" fill="#6cb87a"/>
    </g>
    <g>
      <rect x="330" y="654" width="30" height="30" fill="#f2b34c" stroke="#c98f22" stroke-width="3"/>
      <rect x="362" y="662" width="24" height="22" fill="#4fa3d1" stroke="#2f7ba8" stroke-width="3"/>
      <circle cx="308" cy="672" r="14" fill="#e0603f" stroke="#b34428" stroke-width="3"/>
    </g>
  </g>

  <!-- bed -->
  <g>
    <rect x="612" y="436" width="24" height="248" rx="6" fill="#a9743f"/>
    <rect x="624" y="558" width="242" height="42" rx="6" fill="#b98047"/>
    <rect x="632" y="526" width="228" height="36" rx="8" fill="#f7f4ea"/>
    <path d="M 700 520 L 862 520 L 862 566 L 700 566 Z" fill="#7fb2d9"/>
    <path d="M 700 520 L 862 520 L 862 532 L 700 532 Z" fill="#a7cde8"/>
    <rect x="642" y="510" width="60" height="30" rx="10" fill="#fdfdfb" stroke="#cddcea" stroke-width="3"/>
    <rect x="628" y="600" width="12" height="84" fill="#8c5c30"/>
    <rect x="850" y="600" width="12" height="84" fill="#8c5c30"/>
    <rect x="856" y="436" width="18" height="248" rx="6" fill="#a9743f" opacity="0.7"/>
  </g>

  <!-- rug -->
  <ellipse cx="548" cy="754" rx="266" ry="66" fill="#e7d5b7" stroke="#cdb691" stroke-width="6"/>
  <ellipse cx="548" cy="754" rx="196" ry="44" fill="none" stroke="#cdb691" stroke-width="5"/>

  <!-- doorway, hallway and door edge -->
  <g>
    <rect x="956" y="104" width="228" height="580" fill="url(#hallGrad)"/>
    <rect x="956" y="632" width="228" height="52" fill="#6b7784"/>
    <path d="M 1140 132 L 1170 132 L 1170 632 L 1140 632 Z" fill="#3b4756" opacity="0.7"/>
    <rect x="946" y="94" width="248" height="600" fill="none" stroke="#8c5c30" stroke-width="20"/>
    <path d="M 1184 106 L 1200 96 L 1200 692 L 1184 682 Z" fill="#c68d51" stroke="#8c5c30" stroke-width="4"/>
    <circle cx="1191" cy="404" r="7" fill="#f2b34c"/>
    <line x1="946" y1="684" x2="1194" y2="684" stroke="#6b4523" stroke-width="8"/>
  </g>

  <!-- mother in the doorway -->
  <g>
    <ellipse cx="1064" cy="686" rx="76" ry="14" fill="#1f2731" opacity="0.35"/>
    <path d="M 1032 366 L 1002 420 L 978 452" fill="none" stroke="#f2c49b" stroke-width="19" stroke-linecap="round"/>
    <path d="M 1098 366 L 1126 420 L 1104 462" fill="none" stroke="#f2c49b" stroke-width="19" stroke-linecap="round"/>
    <path d="M 1042 608 L 1040 664" stroke="#f2c49b" stroke-width="18" stroke-linecap="round"/>
    <path d="M 1090 608 L 1092 664" stroke="#f2c49b" stroke-width="18" stroke-linecap="round"/>
    <ellipse cx="1034" cy="672" rx="26" ry="11" fill="#5b3a2e"/>
    <ellipse cx="1096" cy="672" rx="26" ry="11" fill="#5b3a2e"/>
    <path d="M 1032 338 Q 1064 322 1098 338 L 1130 612 L 998 612 Z" fill="#c96f8a"/>
    <path d="M 1032 338 Q 1064 322 1098 338 L 1104 424 Q 1064 436 1026 424 Z" fill="#b25c78"/>
    <path d="M 1032 366 L 1002 420" fill="none" stroke="#c96f8a" stroke-width="22" stroke-linecap="round"/>
    <path d="M 1098 366 L 1126 420" fill="none" stroke="#c96f8a" stroke-width="22" stroke-linecap="round"/>
    <rect x="1054" y="316" width="22" height="26" fill="#e8b78d"/>
    <circle cx="1064" cy="286" r="40" fill="#f2c49b"/>
    <path d="M 1024 292 C 1018 236 1050 240 1064 244 C 1096 244 1108 264 1104 300 C 1100 268 1084 262 1062 264 C 1042 266 1028 272 1024 292 Z" fill="#5b3a2e"/>
    <path d="M 1094 250 A 18 18 0 1 1 1112 268 L 1100 262 Z" fill="#5b3a2e"/>
    <g fill="#2f3742">
      <circle cx="1042" cy="284" r="4.5"/>
      <circle cx="1068" cy="284" r="4.5"/>
    </g>
    <g fill="none" stroke="#4a3628" stroke-width="3" stroke-linecap="round">
      <path d="M 1034 270 Q 1042 264 1050 269"/>
      <path d="M 1060 268 Q 1069 263 1077 269"/>
    </g>
    <ellipse cx="1048" cy="306" rx="9" ry="7" fill="#b34a5c"/>
    <ellipse cx="1030" cy="298" rx="7" ry="5" fill="#e79aa8" opacity="0.8"/>
    <text x="1064" y="222" font-size="22" font-weight="bold" fill="#2f3742" text-anchor="middle">MOM</text>
    <text x="1064" y="244" font-size="15" fill="#4a5a68" text-anchor="middle">at the door</text>
  </g>

  <!-- son with VR headset -->
  <g>
    <ellipse cx="552" cy="706" rx="92" ry="16" fill="#1f2731" opacity="0.25"/>
    <path d="M 536 590 L 520 646" stroke="#3d5a80" stroke-width="27" stroke-linecap="round"/>
    <path d="M 586 590 L 616 644" stroke="#3d5a80" stroke-width="27" stroke-linecap="round"/>
    <path d="M 520 646 L 516 686" stroke="#f2c49b" stroke-width="21" stroke-linecap="round"/>
    <path d="M 616 644 L 648 678" stroke="#f2c49b" stroke-width="21" stroke-linecap="round"/>
    <ellipse cx="510" cy="694" rx="28" ry="12" fill="#e0603f"/>
    <ellipse cx="658" cy="684" rx="28" ry="12" fill="#e0603f" transform="rotate(18 658 684)"/>
    <path d="M 512 468 Q 560 450 608 468 L 616 594 Q 560 610 506 594 Z" fill="#4fa3d1"/>
    <path d="M 512 468 Q 560 450 608 468 L 610 500 Q 560 514 510 500 Z" fill="#3f8dba"/>
    <path d="M 518 486 L 476 434 L 452 366" fill="none" stroke="#f2c49b" stroke-width="20" stroke-linecap="round"/>
    <path d="M 602 486 L 654 516 L 694 470" fill="none" stroke="#f2c49b" stroke-width="20" stroke-linecap="round"/>
    <path d="M 518 486 L 496 458" fill="none" stroke="#4fa3d1" stroke-width="27" stroke-linecap="round"/>
    <path d="M 602 486 L 628 502" fill="none" stroke="#4fa3d1" stroke-width="27" stroke-linecap="round"/>
    <rect x="548" y="410" width="24" height="22" fill="#e8b78d"/>
    <circle cx="560" cy="380" r="47" fill="#f2c49b"/>
    <path d="M 514 378 C 510 328 542 306 562 306 C 600 306 612 336 606 378 C 596 348 578 338 560 338 C 538 338 522 350 514 378 Z" fill="#4a3628"/>
    <path d="M 540 418 Q 560 436 580 418 Q 560 428 540 418 Z" fill="#8c3a3a"/>
    <path d="M 538 414 Q 560 434 582 414" fill="none" stroke="#8c3a3a" stroke-width="4" stroke-linecap="round"/>
    <path d="M 516 372 Q 560 344 604 372" fill="none" stroke="#2b2f3a" stroke-width="12" stroke-linecap="round"/>
    <rect x="508" y="358" width="104" height="46" rx="12" fill="#2b2f3a"/>
    <rect x="516" y="364" width="88" height="26" rx="8" fill="#3c4152"/>
    <circle cx="540" cy="377" r="6" fill="#7ef0e0"/>
    <circle cx="580" cy="377" r="6" fill="#7ef0e0"/>
    <rect x="504" y="366" width="8" height="26" rx="3" fill="#1c1f27"/>
    <rect x="608" y="366" width="8" height="26" rx="3" fill="#1c1f27"/>
    <text x="646" y="322" font-size="22" font-weight="bold" fill="#2f3742">SON</text>
    <text x="646" y="342" font-size="15" fill="#4a5a68">headset on</text>
  </g>

  <!-- controllers in both hands -->
  <g>
    <g transform="translate(452 366) rotate(-24)">
      <rect x="-13" y="-6" width="26" height="48" rx="10" fill="#2b2f3a"/>
      <circle cx="0" cy="-16" r="17" fill="none" stroke="#4a5160" stroke-width="8"/>
      <circle cx="0" cy="4" r="5" fill="#7ef0e0"/>
    </g>
    <g transform="translate(696 470) rotate(38)">
      <rect x="-13" y="-6" width="26" height="48" rx="10" fill="#2b2f3a"/>
      <circle cx="0" cy="-16" r="17" fill="none" stroke="#4a5160" stroke-width="8"/>
      <circle cx="0" cy="4" r="5" fill="#7ef0e0"/>
    </g>
    <g fill="none" stroke="#f2b34c" stroke-width="5" stroke-linecap="round" stroke-dasharray="10 9">
      <path d="M 412 336 Q 436 300 476 296"/>
      <path d="M 404 372 Q 420 344 448 330"/>
      <path d="M 738 452 Q 752 486 736 518"/>
      <path d="M 726 424 Q 756 442 764 476"/>
    </g>
    <g fill="#f2b34c">
      <path d="M 496 268 L 502 284 L 518 290 L 502 296 L 496 312 L 490 296 L 474 290 L 490 284 Z"/>
      <path d="M 716 386 L 720 396 L 730 400 L 720 404 L 716 414 L 712 404 L 702 400 L 712 396 Z"/>
    </g>
  </g>

  <!-- what the son sees: VR world bubble -->
  <g>
    <circle cx="268" cy="146" r="180" fill="url(#glow)" opacity="0.5"/>
    <rect x="104" y="62" width="322" height="156" rx="18" fill="url(#vrGrad)" stroke="#22a394" stroke-width="6"/>
    <g fill="#ffffff" opacity="0.85">
      <circle cx="140" cy="92" r="2.5"/>
      <circle cx="196" cy="78" r="2"/>
      <circle cx="252" cy="100" r="3"/>
      <circle cx="318" cy="82" r="2.5"/>
      <circle cx="386" cy="104" r="2"/>
      <circle cx="168" cy="132" r="2"/>
      <circle cx="404" cy="150" r="2.5"/>
    </g>
    <circle cx="358" cy="122" r="26" fill="#e0603f"/>
    <ellipse cx="358" cy="122" rx="40" ry="10" fill="none" stroke="#f2b34c" stroke-width="5"/>
    <g transform="translate(168 150)">
      <path d="M -22 22 L 0 -26 L 22 22 Z" fill="#7ef0e0"/>
      <rect x="-8" y="22" width="16" height="14" fill="#4fa3d1"/>
      <path d="M -14 36 L -4 50 L 4 50 L 14 36 Z" fill="#f2b34c"/>
    </g>
    <g fill="#6cb87a">
      <rect x="240" y="168" width="26" height="26" rx="4"/>
      <rect x="272" y="152" width="26" height="42" rx="4"/>
    </g>
    <text x="118" y="90" font-size="16" font-weight="bold" fill="#7ef0e0">VR GAME WORLD</text>
    <text x="266" y="248" font-size="17" font-weight="bold" fill="#166f65" text-anchor="middle">What the son sees</text>
    <circle cx="452" cy="246" r="13" fill="#0d1e38" stroke="#22a394" stroke-width="4"/>
    <circle cx="482" cy="292" r="9" fill="#0d1e38" stroke="#22a394" stroke-width="3"/>
    <circle cx="500" cy="330" r="6" fill="#0d1e38" stroke="#22a394" stroke-width="3"/>
  </g>

  <!-- gaze relations -->
  <g>
    <path d="M 1022 296 Q 826 330 636 372" fill="none" stroke="#e0603f" stroke-width="5" stroke-dasharray="16 12" marker-end="url(#arrMom)"/>
    <rect x="746" y="330" width="238" height="34" rx="8" fill="#ffffff" opacity="0.88"/>
    <text x="756" y="354" font-size="18" font-weight="bold" fill="#c04a2c">Mom's line of sight</text>
    <path d="M 506 380 Q 468 300 434 232" fill="none" stroke="#22a394" stroke-width="5" stroke-dasharray="16 12" marker-end="url(#arrVR)"/>
    <rect x="356" y="404" width="252" height="34" rx="8" fill="#ffffff" opacity="0.88"/>
    <text x="366" y="428" font-size="18" font-weight="bold" fill="#166f65">Son's view: only the VR</text>
  </g>

  <!-- caption -->
  <g>
    <rect x="40" y="820" width="812" height="62" rx="10" fill="#ffffff" opacity="0.9"/>
    <text x="58" y="846" font-size="19" fill="#2f3742">A son plays a VR game in his own room, a controller in each hand.</text>
    <text x="58" y="870" font-size="19" fill="#2f3742">His mother watches from the doorway, but the headset keeps him from noticing her.</text>
  </g>
</svg>
