<svg xmlns="http://www.w3.org/2000/svg" viewBox="0 0 1200 900" width="1200" height="900">
  <rect width="1200" height="900" fill="#fbfaf6"/>
  <rect x="120" y="360" width="120" height="70" rx="16" fill="#dbeafe" stroke="#1d4ed8" stroke-width="4"/>
  <rect x="320" y="300" width="210" height="90" rx="18" fill="#fef3c7" stroke="#b45309" stroke-width="4"/>
  <rect x="640" y="300" width="210" height="90" rx="18" fill="#d1fae5" stroke="#047857" stroke-width="4"/>
  <rect x="920" y="300" width="150" height="90" rx="18" fill="#e9d5ff" stroke="#7e22ce" stroke-width="4"/>
  <rect x="650" y="520" width="180" height="78" rx="18" fill="#fee2e2" stroke="#b91c1c" stroke-width="4"/>
  <line x1="240" y1="395" x2="320" y2="345" stroke="#374151" stroke-width="4"/>
  <polygon points="302,338 320,345 309,360" fill="#374151"/>
  <line x1="530" y1="345" x2="640" y2="345" stroke="#374151" stroke-width="4"/>
  <polygon points="622,337 640,345 622,353" fill="#374151"/>
  <line x1="850" y1="345" x2="920" y2="345" stroke="#374151" stroke-width="4"/>
  <polygon points="902,337 920,345 902,353" fill="#374151"/>
  <line x1="994" y1="390" x2="994" y2="530" stroke="#374151" stroke-width="4"/>
  <line x1="994" y1="530" x2="830" y2="560" stroke="#374151" stroke-width="4"/>
  <polygon points="845,546 830,560 849,562" fill="#374151"/>
  <line x1="650" y1="560" x2="430" y2="560" stroke="#374151" stroke-width="4"/>
  <line x1="430" y1="560" x2="430" y2="390" stroke="#374151" stroke-width="4"/>
  <polygon points="422,408 430,390 438,408" fill="#374151"/>
  <line x1="160" y1="520" x2="650" y2="520" stroke="#60a5fa" stroke-width="4" stroke-dasharray="12 8"/>
  <polygon points="632,512 650,520 632,528" fill="#60a5fa"/>
  <g font-size="28" fill="#1f2937">
    <text x="154" y="404">u_k</text>
    <text x="362" y="352">Prediction</text>
    <text x="724" y="352">Update</text>
    <text x="955" y="352">x̂_k</text>
    <text x="694" y="566">Residual / K_k</text>
    <text x="204" y="510">Measurement z_k</text>
  </g>

</svg>
