<svg xmlns="http://www.w3.org/2000/svg" viewBox="0 0 1200 900" width="1200" height="900">
  <rect width="1200" height="900" fill="#fbfaf6"/>
  <rect x="120" y="640" width="220" height="70" rx="18" fill="#3f4c5a"/>
  <circle cx="250" cy="620" r="34" fill="#718096"/>
  <circle cx="340" cy="520" r="28" fill="#718096"/>
  <circle cx="450" cy="430" r="26" fill="#718096"/>
  <circle cx="580" cy="358" r="24" fill="#718096"/>
  <circle cx="712" cy="310" r="22" fill="#718096"/>
  <circle cx="842" cy="282" r="20" fill="#718096"/>
  <circle cx="972" cy="268" r="18" fill="#718096"/>
  <path d="M250 620 L340 520 L450 430 L580 358 L712 310 L842 282 L972 268" fill="none" stroke="#ed8936" stroke-width="22" stroke-linecap="round" stroke-linejoin="round"/>
  <path d="M972 268 L1060 240" fill="none" stroke="#ed8936" stroke-width="16" stroke-linecap="round"/>
  <rect x="1058" y="220" width="44" height="44" rx="10" fill="#2b6cb0"/>
  <path d="M250 576 a32 32 0 1 1 40 40" fill="none" stroke="#2b6cb0" stroke-width="4"/>
  <path d="M340 478 a28 28 0 1 1 34 36" fill="none" stroke="#2b6cb0" stroke-width="4"/>
  <path d="M450 390 a26 26 0 1 1 30 34" fill="none" stroke="#2b6cb0" stroke-width="4"/>
  <path d="M580 322 a24 24 0 1 1 28 30" fill="none" stroke="#2b6cb0" stroke-width="4"/>
  <path d="M712 280 a22 22 0 1 1 24 26" fill="none" stroke="#2b6cb0" stroke-width="4"/>
  <path d="M842 254 a20 20 0 1 1 22 24" fill="none" stroke="#2b6cb0" stroke-width="4"/>
  <path d="M972 242 a18 18 0 1 1 18 20" fill="none" stroke="#2b6cb0" stroke-width="4"/>
  <g font-size="28" fill="#1f2937">
    <text x="224" y="566">J1</text>
    <text x="312" y="468">J2</text>
    <text x="420" y="380">J3</text>
    <text x="548" y="312">J4</text>
    <text x="680" y="270">J5</text>
    <text x="810" y="244">J6</text>
    <text x="940" y="232">J7</text>
  </g>

</svg>
