<svg xmlns="http://www.w3.org/2000/svg" viewBox="0 0 1200 900" width="1200" height="900">
  <defs>
    <!-- Sky Gradient -->
    <linearGradient id="skyGrad" x1="0" y1="0" x2="0" y2="1">
      <stop offset="0%" stop-color="#020617"/>
      <stop offset="40%" stop-color="#0b132b"/>
      <stop offset="75%" stop-color="#1c2541"/>
      <stop offset="100%" stop-color="#3a4066"/>
    </linearGradient>

    <!-- River Reflection Gradient -->
    <linearGradient id="waterGrad" x1="0" y1="0" x2="0" y2="1">
      <stop offset="0%" stop-color="#1e2749"/>
      <stop offset="100%" stop-color="#0d1322"/>
    </linearGradient>

    <!-- Firework Glows -->
    <radialGradient id="glowGold" cx="50%" cy="50%" r="50%">
      <stop offset="0%" stop-color="#fef08a" stop-opacity="0.85"/>
      <stop offset="35%" stop-color="#f59e0b" stop-opacity="0.4"/>
      <stop offset="100%" stop-color="#d97706" stop-opacity="0"/>
    </radialGradient>

    <radialGradient id="glowCyan" cx="50%" cy="50%" r="50%">
      <stop offset="0%" stop-color="#bae6fd" stop-opacity="0.8"/>
      <stop offset="40%" stop-color="#0284c7" stop-opacity="0.35"/>
      <stop offset="100%" stop-color="#0369a1" stop-opacity="0"/>
    </radialGradient>

    <radialGradient id="glowPink" cx="50%" cy="50%" r="50%">
      <stop offset="0%" stop-color="#fbcfe8" stop-opacity="0.8"/>
      <stop offset="40%" stop-color="#db2777" stop-opacity="0.35"/>
      <stop offset="100%" stop-color="#9d174d" stop-opacity="0"/>
    </radialGradient>

    <radialGradient id="lanternGlow" cx="50%" cy="50%" r="60%">
      <stop offset="0%" stop-color="#ffedd5" stop-opacity="0.95"/>
      <stop offset="40%" stop-color="#f97316" stop-opacity="0.5"/>
      <stop offset="100%" stop-color="#ea580c" stop-opacity="0"/>
    </radialGradient>

    <!-- Glow Filter -->
    <filter id="bloom" x="-20%" y="-20%" width="140%" height="140%">
      <feGaussianBlur in="SourceGraphic" stdDeviation="3" result="blur"/>
      <feMerge>
        <feMergeNode in="blur"/>
        <feMergeNode in="SourceGraphic"/>
      </feMerge>
    </filter>
  </defs>

  <!-- Deep Night Sky -->
  <rect width="1200" height="740" fill="url(#skyGrad)"/>

  <!-- Stars in Night Sky -->
  <g id="stars" opacity="0.6">
    <circle cx="80" cy="80" r="1.5" fill="#fff"/>
    <circle cx="150" cy="140" r="1.2" fill="#fff"/>
    <circle cx="210" cy="50" r="1.8" fill="#fff"/>
    <circle cx="340" cy="90" r="1.2" fill="#fff"/>
    <circle cx="430" cy="60" r="2.0" fill="#fff"/>
    <circle cx="510" cy="110" r="1.5" fill="#fff"/>
    <circle cx="700" cy="70" r="1.8" fill="#fff"/>
    <circle cx="780" cy="130" r="1.2" fill="#fff"/>
    <circle cx="840" cy="60" r="2.0" fill="#fff"/>
    <circle cx="1020" cy="90" r="1.5" fill="#fff"/>
    <circle cx="1110" cy="60" r="1.8" fill="#fff"/>
    <circle cx="1150" cy="150" r="1.2" fill="#fff"/>
  </g>

  <!-- Distant Mountain Skyline -->
  <path d="M 0,660 Q 250,620 500,645 T 1000,630 Q 1120,640 1200,655 L 1200,740 L 0,740 Z" fill="#090d16"/>

  <!-- Water Surface (River bank) -->
  <rect x="0" y="700" width="1200" height="200" fill="url(#waterGrad)"/>

  <!-- Water Reflections of Fireworks -->
  <ellipse cx="600" cy="725" rx="140" ry="14" fill="#f59e0b" opacity="0.25" filter="url(#bloom)"/>
  <ellipse cx="280" cy="720" rx="90" ry="10" fill="#0284c7" opacity="0.25" filter="url(#bloom)"/>
  <ellipse cx="920" cy="722" rx="100" ry="12" fill="#db2777" opacity="0.25" filter="url(#bloom)"/>

  <!-- ==================== 1. FIREWORK BURSTS ==================== -->
  <!-- Burst 2: Left Cyan & Emerald -->
  <g id="firework-left" filter="url(#bloom)">
    <circle cx="280" cy="200" r="90" fill="url(#glowCyan)"/>
    <line x1="295.6" y1="200.0" x2="390.5" y2="200.0" stroke="#38bdf8" stroke-width="2.5" stroke-linecap="round"/>
    <line x1="295.0" y1="204.2" x2="389.0" y2="230.7" stroke="#38bdf8" stroke-width="2.5" stroke-linecap="round"/>
    <line x1="294.7" y1="205.3" x2="378.7" y2="235.9" stroke="#38bdf8" stroke-width="2.5" stroke-linecap="round"/>
    <line x1="292.7" y1="209.1" x2="376.2" y2="269.2" stroke="#38bdf8" stroke-width="2.5" stroke-linecap="round"/>
    <line x1="292.0" y1="210.0" x2="356.6" y2="264.3" stroke="#38bdf8" stroke-width="2.5" stroke-linecap="round"/>
    <line x1="288.8" y1="212.9" x2="349.4" y2="301.8" stroke="#38bdf8" stroke-width="2.5" stroke-linecap="round"/>
    <line x1="287.8" y1="213.5" x2="327.9" y2="283.0" stroke="#38bdf8" stroke-width="2.5" stroke-linecap="round"/>
    <line x1="283.8" y1="215.1" x2="311.3" y2="322.9" stroke="#38bdf8" stroke-width="2.5" stroke-linecap="round"/>
    <line x1="282.7" y1="215.4" x2="296.1" y2="291.4" stroke="#38bdf8" stroke-width="2.5" stroke-linecap="round"/>
    <line x1="278.4" y1="215.5" x2="267.1" y2="328.5" stroke="#38bdf8" stroke-width="2.5" stroke-linecap="round"/>
    <line x1="277.3" y1="215.4" x2="264.2" y2="289.8" stroke="#38bdf8" stroke-width="2.5" stroke-linecap="round"/>
    <line x1="273.2" y1="214.1" x2="223.6" y2="317.1" stroke="#38bdf8" stroke-width="2.5" stroke-linecap="round"/>
    <line x1="272.2" y1="213.5" x2="234.4" y2="278.9" stroke="#38bdf8" stroke-width="2.5" stroke-linecap="round"/>
    <line x1="268.8" y1="210.9" x2="187.4" y2="290.3" stroke="#38bdf8" stroke-width="2.5" stroke-linecap="round"/>
    <line x1="268.0" y1="210.0" x2="209.0" y2="259.5" stroke="#38bdf8" stroke-width="2.5" stroke-linecap="round"/>
    <line x1="265.8" y1="206.4" x2="164.1" y2="252.2" stroke="#38bdf8" stroke-width="2.5" stroke-linecap="round"/>
    <line x1="265.3" y1="205.3" x2="190.2" y2="232.7" stroke="#38bdf8" stroke-width="2.5" stroke-linecap="round"/>
    <line x1="264.4" y1="201.2" x2="156.8" y2="209.2" stroke="#38bdf8" stroke-width="2.5" stroke-linecap="round"/>
    <line x1="264.4" y1="200.0" x2="180.4" y2="200.0" stroke="#38bdf8" stroke-width="2.5" stroke-linecap="round"/>
    <line x1="265.0" y1="195.8" x2="165.5" y2="167.7" stroke="#38bdf8" stroke-width="2.5" stroke-linecap="round"/>
    <line x1="265.3" y1="194.7" x2="181.7" y2="164.2" stroke="#38bdf8" stroke-width="2.5" stroke-linecap="round"/>
    <line x1="267.3" y1="190.9" x2="187.6" y2="133.6" stroke="#38bdf8" stroke-width="2.5" stroke-linecap="round"/>
    <line x1="268.0" y1="190.0" x2="195.7" y2="129.3" stroke="#38bdf8" stroke-width="2.5" stroke-linecap="round"/>
    <line x1="271.2" y1="187.1" x2="219.0" y2="110.5" stroke="#38bdf8" stroke-width="2.5" stroke-linecap="round"/>
    <line x1="272.2" y1="186.5" x2="222.3" y2="100.0" stroke="#38bdf8" stroke-width="2.5" stroke-linecap="round"/>
    <line x1="276.2" y1="184.9" x2="254.6" y2="100.2" stroke="#38bdf8" stroke-width="2.5" stroke-linecap="round"/>
    <line x1="277.3" y1="184.6" x2="259.1" y2="81.3" stroke="#38bdf8" stroke-width="2.5" stroke-linecap="round"/>
    <line x1="281.6" y1="184.5" x2="289.8" y2="102.3" stroke="#38bdf8" stroke-width="2.5" stroke-linecap="round"/>
    <line x1="282.7" y1="184.6" x2="301.7" y2="77.1" stroke="#38bdf8" stroke-width="2.5" stroke-linecap="round"/>
    <line x1="286.8" y1="185.9" x2="321.0" y2="114.9" stroke="#38bdf8" stroke-width="2.5" stroke-linecap="round"/>
    <line x1="287.8" y1="186.5" x2="344.0" y2="89.2" stroke="#38bdf8" stroke-width="2.5" stroke-linecap="round"/>
    <line x1="291.2" y1="189.1" x2="345.9" y2="135.8" stroke="#38bdf8" stroke-width="2.5" stroke-linecap="round"/>
    <line x1="292.0" y1="190.0" x2="379.3" y2="116.6" stroke="#38bdf8" stroke-width="2.5" stroke-linecap="round"/>
    <line x1="294.2" y1="193.6" x2="363.0" y2="162.6" stroke="#38bdf8" stroke-width="2.5" stroke-linecap="round"/>
    <line x1="294.7" y1="194.7" x2="402.1" y2="155.6" stroke="#38bdf8" stroke-width="2.5" stroke-linecap="round"/>
    <line x1="295.6" y1="198.8" x2="371.3" y2="193.2" stroke="#38bdf8" stroke-width="2.5" stroke-linecap="round"/>
    <circle cx="390.5" cy="200.0" r="3.0" fill="#f0f9ff"/>
    <circle cx="389.0" cy="230.7" r="3.0" fill="#f0f9ff"/>
    <circle cx="378.7" cy="235.9" r="3.0" fill="#f0f9ff"/>
    <circle cx="376.2" cy="269.2" r="3.0" fill="#f0f9ff"/>
    <circle cx="356.6" cy="264.3" r="3.0" fill="#f0f9ff"/>
    <circle cx="349.4" cy="301.8" r="3.0" fill="#f0f9ff"/>
    <circle cx="327.9" cy="283.0" r="3.0" fill="#f0f9ff"/>
    <circle cx="311.3" cy="322.9" r="3.0" fill="#f0f9ff"/>
    <circle cx="296.1" cy="291.4" r="3.0" fill="#f0f9ff"/>
    <circle cx="267.1" cy="328.5" r="3.0" fill="#f0f9ff"/>
    <circle cx="264.2" cy="289.8" r="3.0" fill="#f0f9ff"/>
    <circle cx="223.6" cy="317.1" r="3.0" fill="#f0f9ff"/>
    <circle cx="234.4" cy="278.9" r="3.0" fill="#f0f9ff"/>
    <circle cx="187.4" cy="290.3" r="3.0" fill="#f0f9ff"/>
    <circle cx="209.0" cy="259.5" r="3.0" fill="#f0f9ff"/>
    <circle cx="164.1" cy="252.2" r="3.0" fill="#f0f9ff"/>
    <circle cx="190.2" cy="232.7" r="3.0" fill="#f0f9ff"/>
    <circle cx="156.8" cy="209.2" r="3.0" fill="#f0f9ff"/>
    <circle cx="180.4" cy="200.0" r="3.0" fill="#f0f9ff"/>
    <circle cx="165.5" cy="167.7" r="3.0" fill="#f0f9ff"/>
    <circle cx="181.7" cy="164.2" r="3.0" fill="#f0f9ff"/>
    <circle cx="187.6" cy="133.6" r="3.0" fill="#f0f9ff"/>
    <circle cx="195.7" cy="129.3" r="3.0" fill="#f0f9ff"/>
    <circle cx="219.0" cy="110.5" r="3.0" fill="#f0f9ff"/>
    <circle cx="222.3" cy="100.0" r="3.0" fill="#f0f9ff"/>
    <circle cx="254.6" cy="100.2" r="3.0" fill="#f0f9ff"/>
    <circle cx="259.1" cy="81.3" r="3.0" fill="#f0f9ff"/>
    <circle cx="289.8" cy="102.3" r="3.0" fill="#f0f9ff"/>
    <circle cx="301.7" cy="77.1" r="3.0" fill="#f0f9ff"/>
    <circle cx="321.0" cy="114.9" r="3.0" fill="#f0f9ff"/>
    <circle cx="344.0" cy="89.2" r="3.0" fill="#f0f9ff"/>
    <circle cx="345.9" cy="135.8" r="3.0" fill="#f0f9ff"/>
    <circle cx="379.3" cy="116.6" r="3.0" fill="#f0f9ff"/>
    <circle cx="363.0" cy="162.6" r="3.0" fill="#f0f9ff"/>
    <circle cx="402.1" cy="155.6" r="3.0" fill="#f0f9ff"/>
    <circle cx="371.3" cy="193.2" r="3.0" fill="#f0f9ff"/>
    <line x1="287.2" y1="200.0" x2="331.0" y2="200.0" stroke="#34d399" stroke-width="2.0" stroke-linecap="round"/>
    <line x1="286.6" y1="202.9" x2="327.9" y2="221.0" stroke="#34d399" stroke-width="2.0" stroke-linecap="round"/>
    <line x1="285.8" y1="204.2" x2="319.2" y2="228.5" stroke="#34d399" stroke-width="2.0" stroke-linecap="round"/>
    <line x1="283.6" y1="206.2" x2="307.6" y2="247.2" stroke="#34d399" stroke-width="2.0" stroke-linecap="round"/>
    <line x1="282.2" y1="206.8" x2="294.3" y2="243.9" stroke="#34d399" stroke-width="2.0" stroke-linecap="round"/>
    <line x1="279.3" y1="207.2" x2="274.3" y2="256.6" stroke="#34d399" stroke-width="2.0" stroke-linecap="round"/>
    <line x1="277.8" y1="206.8" x2="266.3" y2="242.1" stroke="#34d399" stroke-width="2.0" stroke-linecap="round"/>
    <line x1="275.2" y1="205.4" x2="241.0" y2="243.7" stroke="#34d399" stroke-width="2.0" stroke-linecap="round"/>
    <line x1="274.2" y1="204.2" x2="245.3" y2="225.2" stroke="#34d399" stroke-width="2.0" stroke-linecap="round"/>
    <line x1="273.0" y1="201.5" x2="221.8" y2="212.7" stroke="#34d399" stroke-width="2.0" stroke-linecap="round"/>
    <line x1="272.8" y1="200.0" x2="237.9" y2="200.0" stroke="#34d399" stroke-width="2.0" stroke-linecap="round"/>
    <line x1="273.4" y1="197.1" x2="225.1" y2="175.9" stroke="#34d399" stroke-width="2.0" stroke-linecap="round"/>
    <line x1="274.2" y1="195.8" x2="246.0" y2="175.3" stroke="#34d399" stroke-width="2.0" stroke-linecap="round"/>
    <line x1="276.4" y1="193.8" x2="249.9" y2="148.5" stroke="#34d399" stroke-width="2.0" stroke-linecap="round"/>
    <line x1="277.8" y1="193.2" x2="266.8" y2="159.3" stroke="#34d399" stroke-width="2.0" stroke-linecap="round"/>
    <line x1="280.7" y1="192.8" x2="285.9" y2="141.6" stroke="#34d399" stroke-width="2.0" stroke-linecap="round"/>
    <line x1="282.2" y1="193.2" x2="293.6" y2="158.1" stroke="#34d399" stroke-width="2.0" stroke-linecap="round"/>
    <line x1="284.8" y1="194.6" x2="318.0" y2="157.4" stroke="#34d399" stroke-width="2.0" stroke-linecap="round"/>
    <line x1="285.8" y1="195.8" x2="317.2" y2="173.0" stroke="#34d399" stroke-width="2.0" stroke-linecap="round"/>
    <line x1="287.0" y1="198.5" x2="333.7" y2="188.3" stroke="#34d399" stroke-width="2.0" stroke-linecap="round"/>
    <circle cx="331.0" cy="200.0" r="2.4" fill="#ecfdf5"/>
    <circle cx="327.9" cy="221.0" r="2.4" fill="#ecfdf5"/>
    <circle cx="319.2" cy="228.5" r="2.4" fill="#ecfdf5"/>
    <circle cx="307.6" cy="247.2" r="2.4" fill="#ecfdf5"/>
    <circle cx="294.3" cy="243.9" r="2.4" fill="#ecfdf5"/>
    <circle cx="274.3" cy="256.6" r="2.4" fill="#ecfdf5"/>
    <circle cx="266.3" cy="242.1" r="2.4" fill="#ecfdf5"/>
    <circle cx="241.0" cy="243.7" r="2.4" fill="#ecfdf5"/>
    <circle cx="245.3" cy="225.2" r="2.4" fill="#ecfdf5"/>
    <circle cx="221.8" cy="212.7" r="2.4" fill="#ecfdf5"/>
    <circle cx="237.9" cy="200.0" r="2.4" fill="#ecfdf5"/>
    <circle cx="225.1" cy="175.9" r="2.4" fill="#ecfdf5"/>
    <circle cx="246.0" cy="175.3" r="2.4" fill="#ecfdf5"/>
    <circle cx="249.9" cy="148.5" r="2.4" fill="#ecfdf5"/>
    <circle cx="266.8" cy="159.3" r="2.4" fill="#ecfdf5"/>
    <circle cx="285.9" cy="141.6" r="2.4" fill="#ecfdf5"/>
    <circle cx="293.6" cy="158.1" r="2.4" fill="#ecfdf5"/>
    <circle cx="318.0" cy="157.4" r="2.4" fill="#ecfdf5"/>
    <circle cx="317.2" cy="173.0" r="2.4" fill="#ecfdf5"/>
    <circle cx="333.7" cy="188.3" r="2.4" fill="#ecfdf5"/>
  </g>

  <!-- Burst 3: Right Magenta & Pink -->
  <g id="firework-right" filter="url(#bloom)">
    <circle cx="920" cy="220" r="100" fill="url(#glowPink)"/>
    <line x1="936.8" y1="220.0" x2="1039.0" y2="220.0" stroke="#c084fc" stroke-width="2.5" stroke-linecap="round"/>
    <line x1="936.2" y1="224.3" x2="1038.0" y2="251.0" stroke="#c084fc" stroke-width="2.5" stroke-linecap="round"/>
    <line x1="936.0" y1="225.2" x2="1027.6" y2="255.0" stroke="#c084fc" stroke-width="2.5" stroke-linecap="round"/>
    <line x1="934.1" y1="229.1" x2="1027.4" y2="289.0" stroke="#c084fc" stroke-width="2.5" stroke-linecap="round"/>
    <line x1="933.6" y1="229.9" x2="1007.2" y2="283.3" stroke="#c084fc" stroke-width="2.5" stroke-linecap="round"/>
    <line x1="930.6" y1="233.0" x2="1004.0" y2="322.7" stroke="#c084fc" stroke-width="2.5" stroke-linecap="round"/>
    <line x1="929.9" y1="233.6" x2="980.7" y2="303.5" stroke="#c084fc" stroke-width="2.5" stroke-linecap="round"/>
    <line x1="926.1" y1="235.7" x2="969.5" y2="347.3" stroke="#c084fc" stroke-width="2.5" stroke-linecap="round"/>
    <line x1="925.2" y1="236.0" x2="950.9" y2="315.1" stroke="#c084fc" stroke-width="2.5" stroke-linecap="round"/>
    <line x1="921.0" y1="236.8" x2="927.9" y2="358.9" stroke="#c084fc" stroke-width="2.5" stroke-linecap="round"/>
    <line x1="920.0" y1="236.8" x2="920.0" y2="318.3" stroke="#c084fc" stroke-width="2.5" stroke-linecap="round"/>
    <line x1="915.7" y1="236.2" x2="884.4" y2="355.4" stroke="#c084fc" stroke-width="2.5" stroke-linecap="round"/>
    <line x1="914.8" y1="236.0" x2="889.7" y2="313.4" stroke="#c084fc" stroke-width="2.5" stroke-linecap="round"/>
    <line x1="910.9" y1="234.1" x2="844.7" y2="337.1" stroke="#c084fc" stroke-width="2.5" stroke-linecap="round"/>
    <line x1="910.1" y1="233.6" x2="861.4" y2="300.7" stroke="#c084fc" stroke-width="2.5" stroke-linecap="round"/>
    <line x1="907.0" y1="230.6" x2="814.0" y2="306.6" stroke="#c084fc" stroke-width="2.5" stroke-linecap="round"/>
    <line x1="906.4" y1="229.9" x2="836.8" y2="280.5" stroke="#c084fc" stroke-width="2.5" stroke-linecap="round"/>
    <line x1="904.3" y1="226.1" x2="796.0" y2="268.3" stroke="#c084fc" stroke-width="2.5" stroke-linecap="round"/>
    <line x1="904.0" y1="225.2" x2="818.0" y2="253.1" stroke="#c084fc" stroke-width="2.5" stroke-linecap="round"/>
    <line x1="903.2" y1="221.0" x2="792.0" y2="227.3" stroke="#c084fc" stroke-width="2.5" stroke-linecap="round"/>
    <line x1="903.2" y1="220.0" x2="807.4" y2="220.0" stroke="#c084fc" stroke-width="2.5" stroke-linecap="round"/>
    <line x1="903.8" y1="215.7" x2="801.5" y2="188.8" stroke="#c084fc" stroke-width="2.5" stroke-linecap="round"/>
    <line x1="904.0" y1="214.8" x2="807.4" y2="183.4" stroke="#c084fc" stroke-width="2.5" stroke-linecap="round"/>
    <line x1="905.9" y1="210.9" x2="821.9" y2="157.0" stroke="#c084fc" stroke-width="2.5" stroke-linecap="round"/>
    <line x1="906.4" y1="210.1" x2="819.4" y2="146.9" stroke="#c084fc" stroke-width="2.5" stroke-linecap="round"/>
    <line x1="909.4" y1="207.0" x2="849.8" y2="134.2" stroke="#c084fc" stroke-width="2.5" stroke-linecap="round"/>
    <line x1="910.1" y1="206.4" x2="843.7" y2="115.0" stroke="#c084fc" stroke-width="2.5" stroke-linecap="round"/>
    <line x1="913.9" y1="204.3" x2="881.6" y2="121.4" stroke="#c084fc" stroke-width="2.5" stroke-linecap="round"/>
    <line x1="914.8" y1="204.0" x2="878.5" y2="92.2" stroke="#c084fc" stroke-width="2.5" stroke-linecap="round"/>
    <line x1="919.0" y1="203.2" x2="914.2" y2="118.4" stroke="#c084fc" stroke-width="2.5" stroke-linecap="round"/>
    <line x1="920.0" y1="203.2" x2="920.0" y2="82.2" stroke="#c084fc" stroke-width="2.5" stroke-linecap="round"/>
    <line x1="924.3" y1="203.8" x2="945.2" y2="124.2" stroke="#c084fc" stroke-width="2.5" stroke-linecap="round"/>
    <line x1="925.2" y1="204.0" x2="963.2" y2="87.2" stroke="#c084fc" stroke-width="2.5" stroke-linecap="round"/>
    <line x1="929.1" y1="205.9" x2="973.0" y2="137.5" stroke="#c084fc" stroke-width="2.5" stroke-linecap="round"/>
    <line x1="929.9" y1="206.4" x2="1002.2" y2="106.8" stroke="#c084fc" stroke-width="2.5" stroke-linecap="round"/>
    <line x1="933.0" y1="209.4" x2="996.3" y2="157.6" stroke="#c084fc" stroke-width="2.5" stroke-linecap="round"/>
    <line x1="933.6" y1="210.1" x2="1032.0" y2="138.6" stroke="#c084fc" stroke-width="2.5" stroke-linecap="round"/>
    <line x1="935.7" y1="213.9" x2="1014.0" y2="183.4" stroke="#c084fc" stroke-width="2.5" stroke-linecap="round"/>
    <line x1="936.0" y1="214.8" x2="1048.9" y2="178.1" stroke="#c084fc" stroke-width="2.5" stroke-linecap="round"/>
    <line x1="936.8" y1="219.0" x2="1024.3" y2="214.0" stroke="#c084fc" stroke-width="2.5" stroke-linecap="round"/>
    <circle cx="1039.0" cy="220.0" r="3.0" fill="#faf5ff"/>
    <circle cx="1038.0" cy="251.0" r="3.0" fill="#faf5ff"/>
    <circle cx="1027.6" cy="255.0" r="3.0" fill="#faf5ff"/>
    <circle cx="1027.4" cy="289.0" r="3.0" fill="#faf5ff"/>
    <circle cx="1007.2" cy="283.3" r="3.0" fill="#faf5ff"/>
    <circle cx="1004.0" cy="322.7" r="3.0" fill="#faf5ff"/>
    <circle cx="980.7" cy="303.5" r="3.0" fill="#faf5ff"/>
    <circle cx="969.5" cy="347.3" r="3.0" fill="#faf5ff"/>
    <circle cx="950.9" cy="315.1" r="3.0" fill="#faf5ff"/>
    <circle cx="927.9" cy="358.9" r="3.0" fill="#faf5ff"/>
    <circle cx="920.0" cy="318.3" r="3.0" fill="#faf5ff"/>
    <circle cx="884.4" cy="355.4" r="3.0" fill="#faf5ff"/>
    <circle cx="889.7" cy="313.4" r="3.0" fill="#faf5ff"/>
    <circle cx="844.7" cy="337.1" r="3.0" fill="#faf5ff"/>
    <circle cx="861.4" cy="300.7" r="3.0" fill="#faf5ff"/>
    <circle cx="814.0" cy="306.6" r="3.0" fill="#faf5ff"/>
    <circle cx="836.8" cy="280.5" r="3.0" fill="#faf5ff"/>
    <circle cx="796.0" cy="268.3" r="3.0" fill="#faf5ff"/>
    <circle cx="818.0" cy="253.1" r="3.0" fill="#faf5ff"/>
    <circle cx="792.0" cy="227.3" r="3.0" fill="#faf5ff"/>
    <circle cx="807.4" cy="220.0" r="3.0" fill="#faf5ff"/>
    <circle cx="801.5" cy="188.8" r="3.0" fill="#faf5ff"/>
    <circle cx="807.4" cy="183.4" r="3.0" fill="#faf5ff"/>
    <circle cx="821.9" cy="157.0" r="3.0" fill="#faf5ff"/>
    <circle cx="819.4" cy="146.9" r="3.0" fill="#faf5ff"/>
    <circle cx="849.8" cy="134.2" r="3.0" fill="#faf5ff"/>
    <circle cx="843.7" cy="115.0" r="3.0" fill="#faf5ff"/>
    <circle cx="881.6" cy="121.4" r="3.0" fill="#faf5ff"/>
    <circle cx="878.5" cy="92.2" r="3.0" fill="#faf5ff"/>
    <circle cx="914.2" cy="118.4" r="3.0" fill="#faf5ff"/>
    <circle cx="920.0" cy="82.2" r="3.0" fill="#faf5ff"/>
    <circle cx="945.2" cy="124.2" r="3.0" fill="#faf5ff"/>
    <circle cx="963.2" cy="87.2" r="3.0" fill="#faf5ff"/>
    <circle cx="973.0" cy="137.5" r="3.0" fill="#faf5ff"/>
    <circle cx="1002.2" cy="106.8" r="3.0" fill="#faf5ff"/>
    <circle cx="996.3" cy="157.6" r="3.0" fill="#faf5ff"/>
    <circle cx="1032.0" cy="138.6" r="3.0" fill="#faf5ff"/>
    <circle cx="1014.0" cy="183.4" r="3.0" fill="#faf5ff"/>
    <circle cx="1048.9" cy="178.1" r="3.0" fill="#faf5ff"/>
    <circle cx="1024.3" cy="214.0" r="3.0" fill="#faf5ff"/>
    <line x1="928.4" y1="220.0" x2="979.5" y2="220.0" stroke="#f472b6" stroke-width="2.0" stroke-linecap="round"/>
    <line x1="927.9" y1="223.0" x2="977.0" y2="241.6" stroke="#f472b6" stroke-width="2.0" stroke-linecap="round"/>
    <line x1="927.3" y1="224.2" x2="969.0" y2="248.3" stroke="#f472b6" stroke-width="2.0" stroke-linecap="round"/>
    <line x1="925.3" y1="226.5" x2="960.4" y2="269.4" stroke="#f472b6" stroke-width="2.0" stroke-linecap="round"/>
    <line x1="924.2" y1="227.3" x2="946.9" y2="266.6" stroke="#f472b6" stroke-width="2.0" stroke-linecap="round"/>
    <line x1="921.4" y1="228.3" x2="930.7" y2="285.5" stroke="#f472b6" stroke-width="2.0" stroke-linecap="round"/>
    <line x1="920.0" y1="228.4" x2="920.0" y2="271.6" stroke="#f472b6" stroke-width="2.0" stroke-linecap="round"/>
    <line x1="917.0" y1="227.9" x2="895.8" y2="283.9" stroke="#f472b6" stroke-width="2.0" stroke-linecap="round"/>
    <line x1="915.8" y1="227.3" x2="895.0" y2="263.3" stroke="#f472b6" stroke-width="2.0" stroke-linecap="round"/>
    <line x1="913.5" y1="225.3" x2="866.2" y2="264.0" stroke="#f472b6" stroke-width="2.0" stroke-linecap="round"/>
    <line x1="912.7" y1="224.2" x2="877.5" y2="244.6" stroke="#f472b6" stroke-width="2.0" stroke-linecap="round"/>
    <line x1="911.7" y1="221.4" x2="850.9" y2="231.3" stroke="#f472b6" stroke-width="2.0" stroke-linecap="round"/>
    <line x1="911.6" y1="220.0" x2="870.9" y2="220.0" stroke="#f472b6" stroke-width="2.0" stroke-linecap="round"/>
    <line x1="912.1" y1="217.0" x2="854.9" y2="195.4" stroke="#f472b6" stroke-width="2.0" stroke-linecap="round"/>
    <line x1="912.7" y1="215.8" x2="876.8" y2="195.1" stroke="#f472b6" stroke-width="2.0" stroke-linecap="round"/>
    <line x1="914.7" y1="213.5" x2="876.7" y2="167.0" stroke="#f472b6" stroke-width="2.0" stroke-linecap="round"/>
    <line x1="915.8" y1="212.7" x2="894.3" y2="175.5" stroke="#f472b6" stroke-width="2.0" stroke-linecap="round"/>
    <line x1="918.6" y1="211.7" x2="909.3" y2="154.3" stroke="#f472b6" stroke-width="2.0" stroke-linecap="round"/>
    <line x1="920.0" y1="211.6" x2="920.0" y2="166.4" stroke="#f472b6" stroke-width="2.0" stroke-linecap="round"/>
    <line x1="923.0" y1="212.1" x2="942.7" y2="160.1" stroke="#f472b6" stroke-width="2.0" stroke-linecap="round"/>
    <line x1="924.2" y1="212.7" x2="948.1" y2="171.2" stroke="#f472b6" stroke-width="2.0" stroke-linecap="round"/>
    <line x1="926.5" y1="214.7" x2="967.4" y2="181.2" stroke="#f472b6" stroke-width="2.0" stroke-linecap="round"/>
    <line x1="927.3" y1="215.8" x2="971.3" y2="190.4" stroke="#f472b6" stroke-width="2.0" stroke-linecap="round"/>
    <line x1="928.3" y1="218.6" x2="977.5" y2="210.6" stroke="#f472b6" stroke-width="2.0" stroke-linecap="round"/>
    <circle cx="979.5" cy="220.0" r="2.4" fill="#fdf2f8"/>
    <circle cx="977.0" cy="241.6" r="2.4" fill="#fdf2f8"/>
    <circle cx="969.0" cy="248.3" r="2.4" fill="#fdf2f8"/>
    <circle cx="960.4" cy="269.4" r="2.4" fill="#fdf2f8"/>
    <circle cx="946.9" cy="266.6" r="2.4" fill="#fdf2f8"/>
    <circle cx="930.7" cy="285.5" r="2.4" fill="#fdf2f8"/>
    <circle cx="920.0" cy="271.6" r="2.4" fill="#fdf2f8"/>
    <circle cx="895.8" cy="283.9" r="2.4" fill="#fdf2f8"/>
    <circle cx="895.0" cy="263.3" r="2.4" fill="#fdf2f8"/>
    <circle cx="866.2" cy="264.0" r="2.4" fill="#fdf2f8"/>
    <circle cx="877.5" cy="244.6" r="2.4" fill="#fdf2f8"/>
    <circle cx="850.9" cy="231.3" r="2.4" fill="#fdf2f8"/>
    <circle cx="870.9" cy="220.0" r="2.4" fill="#fdf2f8"/>
    <circle cx="854.9" cy="195.4" r="2.4" fill="#fdf2f8"/>
    <circle cx="876.8" cy="195.1" r="2.4" fill="#fdf2f8"/>
    <circle cx="876.7" cy="167.0" r="2.4" fill="#fdf2f8"/>
    <circle cx="894.3" cy="175.5" r="2.4" fill="#fdf2f8"/>
    <circle cx="909.3" cy="154.3" r="2.4" fill="#fdf2f8"/>
    <circle cx="920.0" cy="166.4" r="2.4" fill="#fdf2f8"/>
    <circle cx="942.7" cy="160.1" r="2.4" fill="#fdf2f8"/>
    <circle cx="948.1" cy="171.2" r="2.4" fill="#fdf2f8"/>
    <circle cx="967.4" cy="181.2" r="2.4" fill="#fdf2f8"/>
    <circle cx="971.3" cy="190.4" r="2.4" fill="#fdf2f8"/>
    <circle cx="977.5" cy="210.6" r="2.4" fill="#fdf2f8"/>
  </g>

  <!-- Burst 1: Center Large Gold & Crimson -->
  <g id="firework-center" filter="url(#bloom)">
    <circle cx="600" cy="240" r="140" fill="url(#glowGold)"/>
    <line x1="621.6" y1="240.0" x2="753.0" y2="240.0" stroke="#fbbf24" stroke-width="3.0" stroke-linecap="round"/>
    <line x1="621.0" y1="244.9" x2="752.6" y2="275.9" stroke="#fbbf24" stroke-width="3.0" stroke-linecap="round"/>
    <line x1="620.9" y1="245.6" x2="740.5" y2="277.6" stroke="#fbbf24" stroke-width="3.0" stroke-linecap="round"/>
    <line x1="619.0" y1="250.2" x2="744.6" y2="317.6" stroke="#fbbf24" stroke-width="3.0" stroke-linecap="round"/>
    <line x1="618.7" y1="250.8" x2="720.0" y2="309.3" stroke="#fbbf24" stroke-width="3.0" stroke-linecap="round"/>
    <line x1="615.7" y1="254.8" x2="724.3" y2="356.8" stroke="#fbbf24" stroke-width="3.0" stroke-linecap="round"/>
    <line x1="615.3" y1="255.3" x2="693.8" y2="333.8" stroke="#fbbf24" stroke-width="3.0" stroke-linecap="round"/>
    <line x1="611.4" y1="258.4" x2="692.5" y2="389.3" stroke="#fbbf24" stroke-width="3.0" stroke-linecap="round"/>
    <line x1="610.8" y1="258.7" x2="664.3" y2="351.3" stroke="#fbbf24" stroke-width="3.0" stroke-linecap="round"/>
    <line x1="606.2" y1="260.7" x2="651.6" y2="411.2" stroke="#fbbf24" stroke-width="3.0" stroke-linecap="round"/>
    <line x1="605.6" y1="260.9" x2="632.7" y2="362.0" stroke="#fbbf24" stroke-width="3.0" stroke-linecap="round"/>
    <line x1="600.7" y1="261.6" x2="605.6" y2="419.9" stroke="#fbbf24" stroke-width="3.0" stroke-linecap="round"/>
    <line x1="600.0" y1="261.6" x2="600.0" y2="366.2" stroke="#fbbf24" stroke-width="3.0" stroke-linecap="round"/>
    <line x1="595.1" y1="261.0" x2="559.0" y2="414.3" stroke="#fbbf24" stroke-width="3.0" stroke-linecap="round"/>
    <line x1="594.4" y1="260.9" x2="566.8" y2="363.9" stroke="#fbbf24" stroke-width="3.0" stroke-linecap="round"/>
    <line x1="589.8" y1="259.0" x2="516.8" y2="395.0" stroke="#fbbf24" stroke-width="3.0" stroke-linecap="round"/>
    <line x1="589.2" y1="258.7" x2="533.9" y2="354.5" stroke="#fbbf24" stroke-width="3.0" stroke-linecap="round"/>
    <line x1="585.2" y1="255.7" x2="482.8" y2="364.7" stroke="#fbbf24" stroke-width="3.0" stroke-linecap="round"/>
    <line x1="584.7" y1="255.3" x2="502.5" y2="337.5" stroke="#fbbf24" stroke-width="3.0" stroke-linecap="round"/>
    <line x1="581.6" y1="251.4" x2="459.9" y2="326.8" stroke="#fbbf24" stroke-width="3.0" stroke-linecap="round"/>
    <line x1="581.3" y1="250.8" x2="474.6" y2="312.4" stroke="#fbbf24" stroke-width="3.0" stroke-linecap="round"/>
    <line x1="579.3" y1="246.2" x2="449.2" y2="285.5" stroke="#fbbf24" stroke-width="3.0" stroke-linecap="round"/>
    <line x1="579.1" y1="245.6" x2="452.9" y2="279.4" stroke="#fbbf24" stroke-width="3.0" stroke-linecap="round"/>
    <line x1="578.4" y1="240.7" x2="450.2" y2="244.6" stroke="#fbbf24" stroke-width="3.0" stroke-linecap="round"/>
    <line x1="578.4" y1="240.0" x2="440.1" y2="240.0" stroke="#fbbf24" stroke-width="3.0" stroke-linecap="round"/>
    <line x1="579.0" y1="235.1" x2="461.3" y2="207.4" stroke="#fbbf24" stroke-width="3.0" stroke-linecap="round"/>
    <line x1="579.1" y1="234.4" x2="438.8" y2="196.8" stroke="#fbbf24" stroke-width="3.0" stroke-linecap="round"/>
    <line x1="581.0" y1="229.8" x2="480.2" y2="175.7" stroke="#fbbf24" stroke-width="3.0" stroke-linecap="round"/>
    <line x1="581.3" y1="229.2" x2="450.4" y2="153.6" stroke="#fbbf24" stroke-width="3.0" stroke-linecap="round"/>
    <line x1="584.3" y1="225.2" x2="504.7" y2="150.4" stroke="#fbbf24" stroke-width="3.0" stroke-linecap="round"/>
    <line x1="584.7" y1="224.7" x2="474.7" y2="114.7" stroke="#fbbf24" stroke-width="3.0" stroke-linecap="round"/>
    <line x1="588.6" y1="221.6" x2="532.9" y2="131.7" stroke="#fbbf24" stroke-width="3.0" stroke-linecap="round"/>
    <line x1="589.2" y1="221.3" x2="510.2" y2="84.5" stroke="#fbbf24" stroke-width="3.0" stroke-linecap="round"/>
    <line x1="593.8" y1="219.3" x2="563.6" y2="119.3" stroke="#fbbf24" stroke-width="3.0" stroke-linecap="round"/>
    <line x1="594.4" y1="219.1" x2="553.4" y2="66.3" stroke="#fbbf24" stroke-width="3.0" stroke-linecap="round"/>
    <line x1="599.3" y1="218.4" x2="596.1" y2="113.3" stroke="#fbbf24" stroke-width="3.0" stroke-linecap="round"/>
    <line x1="600.0" y1="218.4" x2="600.0" y2="62.0" stroke="#fbbf24" stroke-width="3.0" stroke-linecap="round"/>
    <line x1="604.9" y1="219.0" x2="629.7" y2="113.8" stroke="#fbbf24" stroke-width="3.0" stroke-linecap="round"/>
    <line x1="605.6" y1="219.1" x2="645.1" y2="71.7" stroke="#fbbf24" stroke-width="3.0" stroke-linecap="round"/>
    <line x1="610.2" y1="221.0" x2="663.6" y2="121.6" stroke="#fbbf24" stroke-width="3.0" stroke-linecap="round"/>
    <line x1="610.8" y1="221.3" x2="684.3" y2="93.9" stroke="#fbbf24" stroke-width="3.0" stroke-linecap="round"/>
    <line x1="614.8" y1="224.3" x2="696.3" y2="137.6" stroke="#fbbf24" stroke-width="3.0" stroke-linecap="round"/>
    <line x1="615.3" y1="224.7" x2="714.5" y2="125.5" stroke="#fbbf24" stroke-width="3.0" stroke-linecap="round"/>
    <line x1="618.4" y1="228.6" x2="725.6" y2="162.2" stroke="#fbbf24" stroke-width="3.0" stroke-linecap="round"/>
    <line x1="618.7" y1="229.2" x2="733.7" y2="162.8" stroke="#fbbf24" stroke-width="3.0" stroke-linecap="round"/>
    <line x1="620.7" y1="233.8" x2="748.8" y2="195.2" stroke="#fbbf24" stroke-width="3.0" stroke-linecap="round"/>
    <line x1="620.9" y1="234.4" x2="741.8" y2="202.0" stroke="#fbbf24" stroke-width="3.0" stroke-linecap="round"/>
    <line x1="621.6" y1="239.3" x2="762.7" y2="235.0" stroke="#fbbf24" stroke-width="3.0" stroke-linecap="round"/>
    <circle cx="753.0" cy="240.0" r="3.6" fill="#fffbeb"/>
    <circle cx="752.6" cy="275.9" r="3.6" fill="#fffbeb"/>
    <circle cx="740.5" cy="277.6" r="3.6" fill="#fffbeb"/>
    <circle cx="744.6" cy="317.6" r="3.6" fill="#fffbeb"/>
    <circle cx="720.0" cy="309.3" r="3.6" fill="#fffbeb"/>
    <circle cx="724.3" cy="356.8" r="3.6" fill="#fffbeb"/>
    <circle cx="693.8" cy="333.8" r="3.6" fill="#fffbeb"/>
    <circle cx="692.5" cy="389.3" r="3.6" fill="#fffbeb"/>
    <circle cx="664.3" cy="351.3" r="3.6" fill="#fffbeb"/>
    <circle cx="651.6" cy="411.2" r="3.6" fill="#fffbeb"/>
    <circle cx="632.7" cy="362.0" r="3.6" fill="#fffbeb"/>
    <circle cx="605.6" cy="419.9" r="3.6" fill="#fffbeb"/>
    <circle cx="600.0" cy="366.2" r="3.6" fill="#fffbeb"/>
    <circle cx="559.0" cy="414.3" r="3.6" fill="#fffbeb"/>
    <circle cx="566.8" cy="363.9" r="3.6" fill="#fffbeb"/>
    <circle cx="516.8" cy="395.0" r="3.6" fill="#fffbeb"/>
    <circle cx="533.9" cy="354.5" r="3.6" fill="#fffbeb"/>
    <circle cx="482.8" cy="364.7" r="3.6" fill="#fffbeb"/>
    <circle cx="502.5" cy="337.5" r="3.6" fill="#fffbeb"/>
    <circle cx="459.9" cy="326.8" r="3.6" fill="#fffbeb"/>
    <circle cx="474.6" cy="312.4" r="3.6" fill="#fffbeb"/>
    <circle cx="449.2" cy="285.5" r="3.6" fill="#fffbeb"/>
    <circle cx="452.9" cy="279.4" r="3.6" fill="#fffbeb"/>
    <circle cx="450.2" cy="244.6" r="3.6" fill="#fffbeb"/>
    <circle cx="440.1" cy="240.0" r="3.6" fill="#fffbeb"/>
    <circle cx="461.3" cy="207.4" r="3.6" fill="#fffbeb"/>
    <circle cx="438.8" cy="196.8" r="3.6" fill="#fffbeb"/>
    <circle cx="480.2" cy="175.7" r="3.6" fill="#fffbeb"/>
    <circle cx="450.4" cy="153.6" r="3.6" fill="#fffbeb"/>
    <circle cx="504.7" cy="150.4" r="3.6" fill="#fffbeb"/>
    <circle cx="474.7" cy="114.7" r="3.6" fill="#fffbeb"/>
    <circle cx="532.9" cy="131.7" r="3.6" fill="#fffbeb"/>
    <circle cx="510.2" cy="84.5" r="3.6" fill="#fffbeb"/>
    <circle cx="563.6" cy="119.3" r="3.6" fill="#fffbeb"/>
    <circle cx="553.4" cy="66.3" r="3.6" fill="#fffbeb"/>
    <circle cx="596.1" cy="113.3" r="3.6" fill="#fffbeb"/>
    <circle cx="600.0" cy="62.0" r="3.6" fill="#fffbeb"/>
    <circle cx="629.7" cy="113.8" r="3.6" fill="#fffbeb"/>
    <circle cx="645.1" cy="71.7" r="3.6" fill="#fffbeb"/>
    <circle cx="663.6" cy="121.6" r="3.6" fill="#fffbeb"/>
    <circle cx="684.3" cy="93.9" r="3.6" fill="#fffbeb"/>
    <circle cx="696.3" cy="137.6" r="3.6" fill="#fffbeb"/>
    <circle cx="714.5" cy="125.5" r="3.6" fill="#fffbeb"/>
    <circle cx="725.6" cy="162.2" r="3.6" fill="#fffbeb"/>
    <circle cx="733.7" cy="162.8" r="3.6" fill="#fffbeb"/>
    <circle cx="748.8" cy="195.2" r="3.6" fill="#fffbeb"/>
    <circle cx="741.8" cy="202.0" r="3.6" fill="#fffbeb"/>
    <circle cx="762.7" cy="235.0" r="3.6" fill="#fffbeb"/>
    <line x1="610.8" y1="240.0" x2="676.5" y2="240.0" stroke="#f43f5e" stroke-width="2.5" stroke-linecap="round"/>
    <line x1="610.2" y1="243.4" x2="674.3" y2="265.0" stroke="#f43f5e" stroke-width="2.5" stroke-linecap="round"/>
    <line x1="609.7" y1="244.7" x2="665.5" y2="271.6" stroke="#f43f5e" stroke-width="2.5" stroke-linecap="round"/>
    <line x1="607.7" y1="247.5" x2="658.7" y2="297.3" stroke="#f43f5e" stroke-width="2.5" stroke-linecap="round"/>
    <line x1="606.7" y1="248.4" x2="643.2" y2="294.1" stroke="#f43f5e" stroke-width="2.5" stroke-linecap="round"/>
    <line x1="603.7" y1="250.1" x2="629.1" y2="320.1" stroke="#f43f5e" stroke-width="2.5" stroke-linecap="round"/>
    <line x1="602.4" y1="250.5" x2="614.8" y2="304.7" stroke="#f43f5e" stroke-width="2.5" stroke-linecap="round"/>
    <line x1="598.9" y1="250.7" x2="591.2" y2="327.4" stroke="#f43f5e" stroke-width="2.5" stroke-linecap="round"/>
    <line x1="597.6" y1="250.5" x2="585.7" y2="302.7" stroke="#f43f5e" stroke-width="2.5" stroke-linecap="round"/>
    <line x1="594.4" y1="249.2" x2="553.4" y2="316.3" stroke="#f43f5e" stroke-width="2.5" stroke-linecap="round"/>
    <line x1="593.3" y1="248.4" x2="560.6" y2="289.4" stroke="#f43f5e" stroke-width="2.5" stroke-linecap="round"/>
    <line x1="590.9" y1="245.9" x2="524.4" y2="288.8" stroke="#f43f5e" stroke-width="2.5" stroke-linecap="round"/>
    <line x1="590.3" y1="244.7" x2="543.1" y2="267.4" stroke="#f43f5e" stroke-width="2.5" stroke-linecap="round"/>
    <line x1="589.3" y1="241.3" x2="511.2" y2="251.1" stroke="#f43f5e" stroke-width="2.5" stroke-linecap="round"/>
    <line x1="589.2" y1="240.0" x2="535.9" y2="240.0" stroke="#f43f5e" stroke-width="2.5" stroke-linecap="round"/>
    <line x1="589.8" y1="236.6" x2="516.6" y2="212.0" stroke="#f43f5e" stroke-width="2.5" stroke-linecap="round"/>
    <line x1="590.3" y1="235.3" x2="540.4" y2="211.3" stroke="#f43f5e" stroke-width="2.5" stroke-linecap="round"/>
    <line x1="592.3" y1="232.5" x2="538.8" y2="180.3" stroke="#f43f5e" stroke-width="2.5" stroke-linecap="round"/>
    <line x1="593.3" y1="231.6" x2="557.0" y2="186.1" stroke="#f43f5e" stroke-width="2.5" stroke-linecap="round"/>
    <line x1="596.3" y1="229.9" x2="571.8" y2="162.6" stroke="#f43f5e" stroke-width="2.5" stroke-linecap="round"/>
    <line x1="597.6" y1="229.5" x2="583.9" y2="169.4" stroke="#f43f5e" stroke-width="2.5" stroke-linecap="round"/>
    <line x1="601.1" y1="229.3" x2="607.9" y2="161.6" stroke="#f43f5e" stroke-width="2.5" stroke-linecap="round"/>
    <line x1="602.4" y1="229.5" x2="616.9" y2="165.8" stroke="#f43f5e" stroke-width="2.5" stroke-linecap="round"/>
    <line x1="605.6" y1="230.8" x2="639.1" y2="176.1" stroke="#f43f5e" stroke-width="2.5" stroke-linecap="round"/>
    <line x1="606.7" y1="231.6" x2="649.8" y2="177.5" stroke="#f43f5e" stroke-width="2.5" stroke-linecap="round"/>
    <line x1="609.1" y1="234.1" x2="659.9" y2="201.4" stroke="#f43f5e" stroke-width="2.5" stroke-linecap="round"/>
    <line x1="609.7" y1="235.3" x2="675.2" y2="203.8" stroke="#f43f5e" stroke-width="2.5" stroke-linecap="round"/>
    <line x1="610.7" y1="238.7" x2="667.5" y2="231.6" stroke="#f43f5e" stroke-width="2.5" stroke-linecap="round"/>
    <circle cx="676.5" cy="240.0" r="3.0" fill="#ffe4e6"/>
    <circle cx="674.3" cy="265.0" r="3.0" fill="#ffe4e6"/>
    <circle cx="665.5" cy="271.6" r="3.0" fill="#ffe4e6"/>
    <circle cx="658.7" cy="297.3" r="3.0" fill="#ffe4e6"/>
    <circle cx="643.2" cy="294.1" r="3.0" fill="#ffe4e6"/>
    <circle cx="629.1" cy="320.1" r="3.0" fill="#ffe4e6"/>
    <circle cx="614.8" cy="304.7" r="3.0" fill="#ffe4e6"/>
    <circle cx="591.2" cy="327.4" r="3.0" fill="#ffe4e6"/>
    <circle cx="585.7" cy="302.7" r="3.0" fill="#ffe4e6"/>
    <circle cx="553.4" cy="316.3" r="3.0" fill="#ffe4e6"/>
    <circle cx="560.6" cy="289.4" r="3.0" fill="#ffe4e6"/>
    <circle cx="524.4" cy="288.8" r="3.0" fill="#ffe4e6"/>
    <circle cx="543.1" cy="267.4" r="3.0" fill="#ffe4e6"/>
    <circle cx="511.2" cy="251.1" r="3.0" fill="#ffe4e6"/>
    <circle cx="535.9" cy="240.0" r="3.0" fill="#ffe4e6"/>
    <circle cx="516.6" cy="212.0" r="3.0" fill="#ffe4e6"/>
    <circle cx="540.4" cy="211.3" r="3.0" fill="#ffe4e6"/>
    <circle cx="538.8" cy="180.3" r="3.0" fill="#ffe4e6"/>
    <circle cx="557.0" cy="186.1" r="3.0" fill="#ffe4e6"/>
    <circle cx="571.8" cy="162.6" r="3.0" fill="#ffe4e6"/>
    <circle cx="583.9" cy="169.4" r="3.0" fill="#ffe4e6"/>
    <circle cx="607.9" cy="161.6" r="3.0" fill="#ffe4e6"/>
    <circle cx="616.9" cy="165.8" r="3.0" fill="#ffe4e6"/>
    <circle cx="639.1" cy="176.1" r="3.0" fill="#ffe4e6"/>
    <circle cx="649.8" cy="177.5" r="3.0" fill="#ffe4e6"/>
    <circle cx="659.9" cy="201.4" r="3.0" fill="#ffe4e6"/>
    <circle cx="675.2" cy="203.8" r="3.0" fill="#ffe4e6"/>
    <circle cx="667.5" cy="231.6" r="3.0" fill="#ffe4e6"/>
  </g>

  <!-- Sparks Trailing Downwards -->
  <g id="sparks" opacity="0.75" filter="url(#bloom)">
    <circle cx="580" cy="440" r="2.5" fill="#fde047"/>
    <circle cx="625" cy="455" r="2.0" fill="#fde047"/>
    <circle cx="595" cy="480" r="1.8" fill="#f43f5e"/>
    <circle cx="260" cy="350" r="2.0" fill="#38bdf8"/>
    <circle cx="300" cy="365" r="1.8" fill="#34d399"/>
    <circle cx="900" cy="380" r="2.0" fill="#f472b6"/>
    <circle cx="940" cy="395" r="2.2" fill="#c084fc"/>
  </g>

  <!-- ==================== 2. FESTIVAL STALLS (YATAI) & LANTERNS ==================== -->
  <!-- Stall Canopies & Roofs (Background Silhouettes) -->
  <g id="yatai-stalls">
    <!-- Stall 1: Left (Takoyaki) -->
    <path d="M 60,650 L 260,650 L 280,680 L 40,680 Z" fill="#b91c1c"/>
    <polygon points="60,650 100,650 85,680 40,680" fill="#ffffff"/>
    <polygon points="140,650 180,650 170,680 130,680" fill="#ffffff"/>
    <polygon points="220,650 260,650 250,680 210,680" fill="#ffffff"/>
    <!-- Stall poles & counter -->
    <line x1="70" y1="680" x2="70" y2="820" stroke="#451a03" stroke-width="4"/>
    <line x1="250" y1="680" x2="250" y2="820" stroke="#451a03" stroke-width="4"/>
    <rect x="50" y="740" width="220" height="70" fill="#1e1b18"/>

    <!-- Stall 2: Center-Left (Yakisoba) -->
    <path d="M 330,650 L 530,650 L 550,680 L 310,680 Z" fill="#0284c7"/>
    <polygon points="330,650 370,650 355,680 310,680" fill="#ffffff"/>
    <polygon points="410,650 450,650 440,680 400,680" fill="#ffffff"/>
    <polygon points="490,650 530,650 520,680 480,680" fill="#ffffff"/>
    <line x1="340" y1="680" x2="340" y2="820" stroke="#451a03" stroke-width="4"/>
    <line x1="520" y1="680" x2="520" y2="820" stroke="#451a03" stroke-width="4"/>
    <rect x="320" y="740" width="220" height="70" fill="#1e1b18"/>

    <!-- Stall 3: Center-Right (Kakigori) -->
    <path d="M 670,650 L 870,650 L 890,680 L 650,680 Z" fill="#e11d48"/>
    <polygon points="670,650 710,650 695,680 650,680" fill="#ffffff"/>
    <polygon points="750,650 790,650 780,680 740,680" fill="#ffffff"/>
    <polygon points="830,650 870,650 860,680 820,680" fill="#ffffff"/>
    <line x1="680" y1="680" x2="680" y2="820" stroke="#451a03" stroke-width="4"/>
    <line x1="860" y1="680" x2="860" y2="820" stroke="#451a03" stroke-width="4"/>
    <rect x="660" y="740" width="220" height="70" fill="#1e1b18"/>

    <!-- Stall 4: Right (Tangerine/Apple candy) -->
    <path d="M 940,650 L 1140,650 L 1160,680 L 920,680 Z" fill="#d97706"/>
    <polygon points="940,650 980,650 965,680 920,680" fill="#ffffff"/>
    <polygon points="1020,650 1060,650 1050,680 1010,680" fill="#ffffff"/>
    <polygon points="1100,650 1140,650 1130,680 1090,680" fill="#ffffff"/>
    <line x1="950" y1="680" x2="950" y2="820" stroke="#451a03" stroke-width="4"/>
    <line x1="1130" y1="680" x2="1130" y2="820" stroke="#451a03" stroke-width="4"/>
    <rect x="930" y="740" width="220" height="70" fill="#1e1b18"/>
  </g>

  <!-- Glowing Lanterns (Chochin) in rows across the stalls -->
  <g id="lanterns" filter="url(#bloom)">
    <!-- Hanging String -->
    <path d="M 30,685 Q 300,700 600,695 Q 900,700 1170,685" fill="none" stroke="#262626" stroke-width="2"/>
    <!-- Individual Lanterns with warm glow -->
    <!-- Loop through lantern positions -->
    <g transform="translate(80, 700)"><circle cx="0" cy="0" r="22" fill="url(#lanternGlow)"/><rect x="-9" y="-14" width="18" height="28" rx="7" fill="#ef4444"/><circle cx="0" cy="0" r="4" fill="#fef08a"/></g>
    <g transform="translate(140, 705)"><circle cx="0" cy="0" r="22" fill="url(#lanternGlow)"/><rect x="-9" y="-14" width="18" height="28" rx="7" fill="#f59e0b"/><circle cx="0" cy="0" r="4" fill="#fef08a"/></g>
    <g transform="translate(200, 705)"><circle cx="0" cy="0" r="22" fill="url(#lanternGlow)"/><rect x="-9" y="-14" width="18" height="28" rx="7" fill="#ef4444"/><circle cx="0" cy="0" r="4" fill="#fef08a"/></g>
    <g transform="translate(260, 702)"><circle cx="0" cy="0" r="22" fill="url(#lanternGlow)"/><rect x="-9" y="-14" width="18" height="28" rx="7" fill="#f59e0b"/><circle cx="0" cy="0" r="4" fill="#fef08a"/></g>

    <g transform="translate(350, 702)"><circle cx="0" cy="0" r="22" fill="url(#lanternGlow)"/><rect x="-9" y="-14" width="18" height="28" rx="7" fill="#ef4444"/><circle cx="0" cy="0" r="4" fill="#fef08a"/></g>
    <g transform="translate(410, 705)"><circle cx="0" cy="0" r="22" fill="url(#lanternGlow)"/><rect x="-9" y="-14" width="18" height="28" rx="7" fill="#f59e0b"/><circle cx="0" cy="0" r="4" fill="#fef08a"/></g>
    <g transform="translate(470, 705)"><circle cx="0" cy="0" r="22" fill="url(#lanternGlow)"/><rect x="-9" y="-14" width="18" height="28" rx="7" fill="#ef4444"/><circle cx="0" cy="0" r="4" fill="#fef08a"/></g>
    <g transform="translate(530, 702)"><circle cx="0" cy="0" r="22" fill="url(#lanternGlow)"/><rect x="-9" y="-14" width="18" height="28" rx="7" fill="#f59e0b"/><circle cx="0" cy="0" r="4" fill="#fef08a"/></g>

    <g transform="translate(690, 702)"><circle cx="0" cy="0" r="22" fill="url(#lanternGlow)"/><rect x="-9" y="-14" width="18" height="28" rx="7" fill="#ef4444"/><circle cx="0" cy="0" r="4" fill="#fef08a"/></g>
    <g transform="translate(750, 705)"><circle cx="0" cy="0" r="22" fill="url(#lanternGlow)"/><rect x="-9" y="-14" width="18" height="28" rx="7" fill="#f59e0b"/><circle cx="0" cy="0" r="4" fill="#fef08a"/></g>
    <g transform="translate(810, 705)"><circle cx="0" cy="0" r="22" fill="url(#lanternGlow)"/><rect x="-9" y="-14" width="18" height="28" rx="7" fill="#ef4444"/><circle cx="0" cy="0" r="4" fill="#fef08a"/></g>
    <g transform="translate(870, 702)"><circle cx="0" cy="0" r="22" fill="url(#lanternGlow)"/><rect x="-9" y="-14" width="18" height="28" rx="7" fill="#f59e0b"/><circle cx="0" cy="0" r="4" fill="#fef08a"/></g>

    <g transform="translate(960, 700)"><circle cx="0" cy="0" r="22" fill="url(#lanternGlow)"/><rect x="-9" y="-14" width="18" height="28" rx="7" fill="#ef4444"/><circle cx="0" cy="0" r="4" fill="#fef08a"/></g>
    <g transform="translate(1020, 705)"><circle cx="0" cy="0" r="22" fill="url(#lanternGlow)"/><rect x="-9" y="-14" width="18" height="28" rx="7" fill="#f59e0b"/><circle cx="0" cy="0" r="4" fill="#fef08a"/></g>
    <g transform="translate(1080, 705)"><circle cx="0" cy="0" r="22" fill="url(#lanternGlow)"/><rect x="-9" y="-14" width="18" height="28" rx="7" fill="#ef4444"/><circle cx="0" cy="0" r="4" fill="#fef08a"/></g>
  </g>

  <!-- ==================== 3. CROWD SILHOUETTES (Foreground) ==================== -->
  <g id="crowd-silhouettes" fill="#090d16">
    <!-- Ground Base -->
    <rect x="0" y="830" width="1200" height="70"/>

    <!-- Person 1 & Child (Left: pointing up at fireworks) -->
    <circle cx="120" cy="790" r="14"/>
    <path d="M 105,805 C 105,800 135,800 135,805 L 140,860 L 100,860 Z"/>
    <!-- Raised arm pointing -->
    <line x1="130" y1="810" x2="155" y2="770" stroke="#090d16" stroke-width="7" stroke-linecap="round"/>

    <circle cx="170" cy="820" r="10"/>
    <path d="M 160,830 L 180,830 L 185,870 L 155,870 Z"/>

    <!-- Couple in Yukata (Center-Left: 380, 420) -->
    <circle cx="390" cy="775" r="15"/>
    <circle cx="425" cy="785" r="13"/>
    <!-- Yukata woman with hair updo & fan (uchiwa) -->
    <circle cx="432" cy="776" r="6"/> <!-- bun -->
    <path d="M 372,790 C 372,785 410,785 410,790 L 415,870 L 368,870 Z"/>
    <path d="M 412,798 C 412,795 442,795 442,798 L 445,870 L 410,870 Z"/>
    <!-- Uchiwa fan in hand -->
    <ellipse cx="452" cy="800" rx="10" ry="12" fill="#090d16"/>
    <line x1="452" y1="812" x2="452" y2="825" stroke="#090d16" stroke-width="3"/>

    <!-- Group in Center (560 - 640) -->
    <circle cx="560" cy="780" r="14"/>
    <path d="M 545,795 C 545,790 575,790 575,795 L 580,870 L 540,870 Z"/>

    <circle cx="600" cy="772" r="15"/>
    <path d="M 585,787 C 585,782 615,782 615,787 L 620,870 L 580,870 Z"/>
    <!-- Arm raised -->
    <line x1="610" y1="795" x2="630" y2="760" stroke="#090d16" stroke-width="7" stroke-linecap="round"/>

    <circle cx="645" cy="785" r="13"/>
    <path d="M 632,798 L 660,798 L 665,870 L 628,870 Z"/>

    <!-- Couple / Friends (Right: 800 - 870) -->
    <circle cx="810" cy="775" r="14"/>
    <path d="M 795,790 C 795,785 825,785 825,790 L 830,870 L 790,870 Z"/>

    <circle cx="850" cy="782" r="13"/>
    <path d="M 837,795 C 837,790 865,790 865,795 L 870,870 L 832,870 Z"/>

    <!-- Family group (Far Right: 1040 - 1120) -->
    <circle cx="1030" cy="785" r="14"/>
    <path d="M 1015,800 L 1045,800 L 1050,870 L 1010,870 Z"/>

    <circle cx="1070" cy="815" r="11"/>
    <path d="M 1060,825 L 1080,825 L 1085,870 L 1055,870 Z"/>

    <circle cx="1110" cy="780" r="15"/>
    <path d="M 1095,795 L 1125,795 L 1130,870 L 1090,870 Z"/>
  </g>

  <!-- Ambient Golden Glow from Lanterns onto Crowd Backs -->
  <ellipse cx="600" cy="780" rx="550" ry="40" fill="#f59e0b" opacity="0.08"/>
</svg>
